<?xml version="1.0" encoding="UTF-8" standalone="no"?>
<svg
   width="16"
   height="16"
   version="1.1"
   id="svg4"
   sodipodi:docname="distrobox-symbolic.svg"
   xmlns:inkscape="http://www.inkscape.org/namespaces/inkscape"
   xmlns:sodipodi="http://sodipodi.sourceforge.net/DTD/sodipodi-0.dtd"
   xmlns="http://www.w3.org/2000/svg"
   xmlns:svg="http://www.w3.org/2000/svg">
  <defs
     id="defs8" />
  <sodipodi:namedview
     id="namedview6"
     pagecolor="#ffffff"
     bordercolor="#000000"
     borderopacity="0.25"
     inkscape:showpageshadow="2"
     inkscape:pageopacity="0.0"
     inkscape:pagecheckerboard="0"
     inkscape:deskcolor="#d1d1d1"
     showgrid="false" />
  <path
     d="M 8,0.186 A 1.732,1.732 0 0 0 7.135,0.418 L 1.865,3.459 A 1.732,1.732 0 0 0 1,4.959 v 6.082 a 1.732,1.732 0 0 0 0.865,1.5 l 5.27,3.041 a 1.732,1.732 0 0 0 1.73,0 l 5.27,-3.041 A 1.732,1.732 0 0 0 15,11.041 V 4.959 a 1.732,1.732 0 0 0 -0.865,-1.5 L 8.865,0.418 A 1.732,1.732 0 0 0 8,0.186 Z M 7.879,1.189 A 0.693,0.693 0 0 1 8.346,1.271 L 13.5,4.246 8,7.422 2.5,4.246 7.654,1.271 A 0.693,0.693 0 0 1 7.879,1.189 Z m 2.857,2.485 -1.834,1.06 0.475,0.274 1.834,-1.059 z M 7.277,3.951 4.789,4.543 5.371,4.879 6.912,4.443 6.166,5.338 6.748,5.674 7.775,4.238 Z m 6.463,0.445 a 0.693,0.693 0 0 1 0.053,0.045 C 13.777,4.425 13.758,4.411 13.74,4.396 Z M 2.17,4.484 2.158,4.498 A 0.693,0.693 0 0 1 2.17,4.484 Z m 11.687,0.034 a 0.693,0.693 0 0 1 0.045,0.064 0.698,0.698 0 0 0 -0.045,-0.064 z m 0.12,0.24 A 0.693,0.693 0 0 1 13.992,4.83 0.677,0.677 0 0 0 13.977,4.758 Z M 2,5.113 7.5,8.29 v 6.35 L 2.346,11.665 A 0.693,0.693 0 0 1 2,11.065 Z m 12,0 v 5.951 a 0.693,0.693 0 0 1 -0.346,0.6 L 8.5,14.64 V 8.29 Z M 2.887,7.244 V 7.916 L 4.035,9.033 2.887,8.834 v 0.674 l 1.76,0.17 V 9.104 Z m 8.258,1.98 -1.758,0.17 v 0.672 l 1.148,-0.209 -1.148,1.13 v 0.671 l 1.758,-1.86 z m 1.968,0.585 -1.836,1.06 v 0.549 l 1.836,-1.06 z M 4.78,10.9 v 0.55 l 1.834,1.06 v -0.55 z m 3.09,3.907 0.022,0.004 A 0.693,0.693 0 0 1 7.87,14.807 Z m 0.262,0 A 0.693,0.693 0 0 1 8.11,14.811 Z"
     id="path2" />
</svg>
